<svg xmlns="http://www.w3.org/2000/svg" viewBox="0 0 32 32" fill="none" aria-hidden="true">
  <path
    d="M 11 6.5 H 21 C 24 6.5 26 8.5 26 11.5 V 15.5 C 26 18.5 24 20.5 21 20.5 H 15.5 L 12.5 24.5 C 12.1 25 11.4 24.8 11.5 24.2 L 12.8 20.5 H 11 C 8 20.5 6 18.5 6 15.5 V 11.5 C 6 8.5 8 6.5 11 6.5 Z"
    stroke="#25D366"
    stroke-width="2.5"
    stroke-linecap="round"
    stroke-linejoin="round"
  />
  <path
    d="M 22.5 19 L 27 26.5"
    stroke="#25D366"
    stroke-width="2.5"
    stroke-linecap="round"
  />
  <circle cx="28" cy="27.8" r="2.4" fill="#25D366"/>
  <path
    d="M 11.5 17.5 V 11.2 C 11.5 10.4 12.2 10 12.8 10.6 L 16 14.8 L 19.2 10.6 C 19.8 10 20.5 10.4 20.5 11.2 V 17.5"
    stroke="#25D366"
    stroke-width="2.35"
    stroke-linecap="round"
    stroke-linejoin="round"
  />
</svg>
