<svg xmlns="http://www.w3.org/2000/svg" viewBox="0 0 256 288" fill="none" aria-hidden="true">
  <defs>
    <linearGradient id="mq-mark-grad" x1="0%" y1="0%" x2="100%" y2="100%">
      <stop offset="0%" stop-color="#25D366"/>
      <stop offset="100%" stop-color="#128C7E"/>
    </linearGradient>
    <filter id="mq-mark-glow" x="-45%" y="-45%" width="190%" height="190%" color-interpolation-filters="sRGB">
      <feGaussianBlur stdDeviation="2.8" result="blur"/>
      <feMerge>
        <feMergeNode in="blur"/>
        <feMergeNode in="SourceGraphic"/>
      </feMerge>
    </filter>
  </defs>
  <path
    d="M 88 48 H 168 C 192 48 208 64 208 88 V 120 C 208 144 192 160 168 160 H 88 C 64 160 48 144 48 120 V 88 C 48 64 64 48 88 48 Z"
    fill="none"
    stroke="url(#mq-mark-grad)"
    stroke-width="6"
    stroke-linecap="round"
    stroke-linejoin="round"
    filter="url(#mq-mark-glow)"
  />
  <path
    d="M 184 152 L 228 224"
    fill="none"
    stroke="url(#mq-mark-grad)"
    stroke-width="6"
    stroke-linecap="round"
    filter="url(#mq-mark-glow)"
  />
  <circle cx="234" cy="232" r="8" fill="url(#mq-mark-grad)" filter="url(#mq-mark-glow)"/>
  <path
    d="M 92 138 C 92 138 92 76 92 70 C 92 62 100 58 108 66 C 124 84 124 84 132 94 C 140 84 140 84 156 66 C 164 58 172 62 172 70 C 172 76 172 138 172 138"
    fill="none"
    stroke="url(#mq-mark-grad)"
    stroke-width="5"
    stroke-linecap="round"
    stroke-linejoin="round"
    filter="url(#mq-mark-glow)"
  />
</svg>
